first trial																																					
nRows=31																																					
nColumns=38																																					
																																					
# SIMM Motion File Header:																																					
name MVN-015																																					
datacolumns 38																																					
datarows 31																																					
otherdata 1																																					
range 0 0.5																																					
endheader																																					
time	pelvis_tilt	pelvis_list	pelvis_rotation	pelvis_tx	pelvis_ty	pelvis_tz	hip_flexion_r	hip_adduction_r	hip_rotation_r	knee_angle_r	ankle_angle_r	subtalar_angle_r	mtp_angle_r	hip_flexion_l	hip_adduction_l	hip_rotation_l	knee_angle_l	ankle_angle_l	subtalar_angle_l	mtp_angle_l	lumbar_extension	lumbar_bending	lumbar_rotation	arm_flex_r	arm_add_r	arm_rot_r	elbow_flex_r	pro_sup_r	wrist_flex_r	wrist_dev_r	arm_flex_l	arm_add_l	arm_rot_l	elbow_flex_l	pro_sup_l	wrist_flex_l	wrist_dev_l
0	-5.4057	0.106	92.3196	-0.3742	0.8191	0.3607	42.8391	-19.2785	3.7951	20.4294	-17.4086	14.8026	0	51.887	-5.6518	4.0319	33.0971	-14.7213	3.2181	0	3.5434	2.7602	-0.9641	37.0488	-24.5278	13.9449	33.7832	126.7506	16.4444	17.4469	21.4451	-32.8225	2.631	34.7631	113.926	-6.8979	11.6218
0.017	-5.1848	0.0649	92.2727	-0.374	0.8195	0.3599	42.6401	-19.2138	3.8203	20.4535	-17.5031	14.8633	0	51.5801	-5.7193	4.0514	33.0848	-14.659	3.2246	0	3.4073	2.7875	-0.9416	36.989	-24.6466	13.9439	33.8184	126.7283	16.4363	17.475	21.4618	-32.8301	2.6234	34.735	113.9233	-6.8938	11.6186
0.033	-4.964	0.0239	92.2259	-0.3738	0.8199	0.3592	42.4411	-19.1491	3.8457	20.4777	-17.5978	14.9241	0	51.2732	-5.7868	4.0705	33.0726	-14.5967	3.2311	0	3.2711	2.8148	-0.919	36.9292	-24.7654	13.9426	33.8535	126.7061	16.4283	17.5032	21.4785	-32.8377	2.6158	34.7069	113.9206	-6.8897	11.6153
0.05	-4.7646	-0.0118	92.1814	-0.3736	0.8204	0.3585	42.2566	-19.0873	3.8708	20.5073	-17.6769	14.9828	0	50.9987	-5.8474	4.0894	33.0638	-14.5376	3.2355	0	3.1472	2.8404	-0.8978	36.8745	-24.8781	13.9424	33.8871	126.6867	16.4217	17.5279	21.4948	-32.8456	2.6058	34.6804	113.9196	-6.8862	11.6134
0.067	-4.5963	-0.0398	92.1397	-0.3735	0.8207	0.3579	42.0914	-19.0283	3.8958	20.5469	-17.7319	15.0392	0	50.7719	-5.898	4.1097	33.0599	-14.4833	3.2366	0	3.0413	2.8642	-0.8783	36.8276	-24.9827	13.9443	33.9189	126.6717	16.4175	17.5471	21.5108	-32.8545	2.5912	34.6554	113.9216	-6.8839	11.6138
0.083	-4.4494	-0.0627	92.1	-0.3733	0.821	0.3573	41.9407	-18.9722	3.9204	20.592	-17.7714	15.0933	0	50.5776	-5.9416	4.1302	33.0596	-14.4323	3.2356	0	2.9478	2.8864	-0.8601	36.7859	-25.0812	13.9472	33.9492	126.6595	16.4147	17.5629	21.5263	-32.8636	2.5741	34.632	113.9254	-6.8824	11.6155
0.1	-4.3168	-0.0826	92.064	-0.3732	0.8213	0.3568	41.8041	-18.9216	3.9427	20.6349	-17.8048	15.1421	0	50.4022	-5.9807	4.1471	33.0619	-14.3829	3.2339	0	2.8624	2.9062	-0.843	36.7464	-25.1732	13.9491	33.9767	126.6488	16.4124	17.5784	21.5406	-32.8711	2.5592	34.612	113.9296	-6.8802	11.6169
0.117	-4.1975	-0.0999	92.0324	-0.3731	0.8216	0.3563	41.6829	-18.8779	3.9613	20.6727	-17.8349	15.1838	0	50.2429	-6.0152	4.1585	33.067	-14.3341	3.2319	0	2.7844	2.9229	-0.827	36.7075	-25.2582	13.9491	34.0006	126.6398	16.4109	17.5948	21.553	-32.8753	2.5487	34.597	113.9342	-6.8769	11.6169
0.133	-4.0924	-0.1144	92.0045	-0.373	0.8219	0.3559	41.5758	-18.8397	3.9776	20.7083	-17.859	15.2201	0	50.1026	-6.0453	4.1665	33.0747	-14.2869	3.2293	0	2.7146	2.9371	-0.8121	36.6709	-25.3367	13.948	34.0218	126.6322	16.4098	17.611	21.5642	-32.8777	2.5402	34.5856	113.9392	-6.8731	11.6166
0.15	-3.9972	-0.1272	91.9794	-0.3729	0.8221	0.3555	41.479	-18.8052	3.9933	20.7429	-17.8792	15.2535	0	49.9755	-6.0736	4.1735	33.0835	-14.2428	3.2272	0	2.6502	2.9498	-0.7979	36.6381	-25.4105	13.9467	34.0412	126.624	16.4076	17.6264	21.5759	-32.8812	2.5312	34.5753	113.9436	-6.8691	11.6171
0.167	-3.9111	-0.1384	91.9569	-0.3728	0.8223	0.3551	41.392	-18.7744	4.0092	20.7767	-17.8959	15.2846	0	49.8611	-6.1009	4.1804	33.093	-14.2026	3.2263	0	2.5912	2.9613	-0.7841	36.6108	-25.4803	13.9453	34.0583	126.6141	16.4029	17.6406	21.5888	-32.8871	2.5195	34.5652	113.948	-6.865	11.6192
0.183	-3.835	-0.148	91.9373	-0.3727	0.8225	0.3547	41.3153	-18.7473	4.0246	20.8095	-17.9086	15.3128	0	49.7599	-6.1265	4.1864	33.1036	-14.1654	3.2261	0	2.5377	2.9713	-0.7711	36.5875	-25.5454	13.9436	34.0738	126.6036	16.397	17.6541	21.6022	-32.894	2.5072	34.5564	113.9519	-6.8608	11.6221
0.2	-3.7662	-0.1567	91.919	-0.3726	0.8227	0.3544	41.2463	-18.7222	4.0393	20.8418	-17.918	15.3376	0	49.6682	-6.1502	4.1908	33.1146	-14.1304	3.2257	0	2.4878	2.9803	-0.7584	36.565	-25.6058	13.9421	34.0898	126.5933	16.3915	17.6673	21.615	-32.9005	2.4982	34.5497	113.9525	-6.8566	11.6249
0.217	-3.7044	-0.1649	91.9023	-0.3725	0.8229	0.3541	41.1852	-18.6987	4.0532	20.8739	-17.9239	15.3582	0	49.5857	-6.1722	4.1925	33.1259	-14.0975	3.225	0	2.4406	2.9881	-0.7461	36.5422	-25.6607	13.9405	34.108	126.5834	16.3873	17.6807	21.6265	-32.9058	2.4954	34.5462	113.9476	-6.8527	11.6271
0.233	-3.6498	-0.1723	91.8869	-0.3724	0.823	0.3538	41.1318	-18.6772	4.0663	20.9054	-17.9266	15.3756	0	49.5127	-6.1924	4.1928	33.1377	-14.0667	3.2243	0	2.397	2.9949	-0.7341	36.5203	-25.7108	13.9391	34.1269	126.5737	16.3835	17.6938	21.6374	-32.9107	2.4959	34.5449	113.9395	-6.8488	11.6292
0.25	-3.6003	-0.1789	91.8728	-0.3723	0.8232	0.3535	41.0831	-18.6578	4.0784	20.9356	-17.9277	15.3925	0	49.4459	-6.211	4.1944	33.1497	-14.0374	3.2233	0	2.3572	3.0012	-0.7229	36.4996	-25.7588	13.9389	34.1443	126.5652	16.3789	17.7057	21.6482	-32.9158	2.4953	34.5436	113.9328	-6.8447	11.6315
0.267	-3.5554	-0.1847	91.8595	-0.3722	0.8233	0.3532	41.0384	-18.6411	4.0898	20.964	-17.928	15.4103	0	49.3849	-6.2278	4.1989	33.1621	-14.009	3.2218	0	2.3222	3.0072	-0.713	36.4788	-25.805	13.9417	34.1598	126.5586	16.3732	17.7155	21.6592	-32.9217	2.4918	34.5418	113.9291	-6.84	11.6344
0.283	-3.5154	-0.1897	91.8474	-0.3721	0.8234	0.3529	40.9985	-18.6264	4.1001	20.991	-17.9267	15.4277	0	49.3301	-6.243	4.2049	33.1748	-13.9821	3.2201	0	2.2911	3.0126	-0.7038	36.4593	-25.849	13.9457	34.1739	126.5533	16.3666	17.724	21.67	-32.9278	2.4871	34.5399	113.9268	-6.835	11.6375
0.3	-3.4791	-0.1948	91.8362	-0.372	0.8236	0.3527	40.9625	-18.6121	4.1081	21.0179	-17.9238	15.4435	0	49.2803	-6.2574	4.2103	33.1871	-13.9572	3.2182	0	2.261	3.0176	-0.6941	36.4457	-25.8928	13.9472	34.1862	126.548	16.3586	17.7332	21.681	-32.9334	2.4818	34.5375	113.926	-6.8304	11.6402
0.317	-3.4462	-0.2004	91.8261	-0.3719	0.8237	0.3525	40.9303	-18.5973	4.1131	21.0451	-17.9187	15.4571	0	49.2353	-6.2715	4.2149	33.199	-13.9346	3.216	0	2.2319	3.0219	-0.6837	36.4377	-25.9368	13.9441	34.1974	126.5451	16.3512	17.742	21.6909	-32.9383	2.4749	34.5344	113.9274	-6.8267	11.6427
0.333	-3.4167	-0.2061	91.8169	-0.3719	0.8238	0.3523	40.902	-18.5829	4.1158	21.0721	-17.9121	15.4692	0	49.1951	-6.2848	4.2191	33.2105	-13.914	3.2137	0	2.2039	3.0257	-0.6727	36.4355	-25.9805	13.9384	34.2068	126.5423	16.3424	17.7515	21.701	-32.9427	2.4674	34.5307	113.9304	-6.8234	11.6448
0.35	-3.3903	-0.2111	91.8081	-0.3718	0.8239	0.3521	40.8773	-18.5702	4.1182	21.0981	-17.9056	15.4804	0	49.1588	-6.297	4.2226	33.2212	-13.8954	3.2117	0	2.1739	3.0293	-0.6601	36.4456	-26.0243	13.9332	34.2127	126.5316	16.3257	17.7663	21.7139	-32.946	2.4628	34.5255	113.9318	-6.82	11.6463
0.366	-3.3664	-0.2151	91.8	-0.3717	0.8239	0.3519	40.8566	-18.56	4.1209	21.1226	-17.9001	15.4908	0	49.1263	-6.3079	4.2251	33.2307	-13.8788	3.2105	0	2.1399	3.0333	-0.6452	36.4792	-26.0677	13.9303	34.2136	126.5065	16.2977	17.7901	21.7326	-32.9478	2.463	34.5171	113.9308	-6.8166	11.6466
0.383	-3.3454	-0.2181	91.7922	-0.3717	0.824	0.3517	40.8394	-18.5514	4.1233	21.146	-17.8947	15.5004	0	49.0976	-6.3177	4.227	33.2394	-13.8642	3.2097	0	2.104	3.0371	-0.6287	36.525	-26.1112	13.9279	34.211	126.4734	16.2617	17.8193	21.7542	-32.9485	2.4661	34.5073	113.9284	-6.8131	11.6462
0.4	-3.327	-0.2209	91.7852	-0.3716	0.8241	0.3516	40.8244	-18.5435	4.1247	21.1685	-17.8892	15.5097	0	49.0717	-6.3269	4.2285	33.2475	-13.8507	3.2084	0	2.0689	3.0393	-0.6114	36.5549	-26.1563	13.923	34.2074	126.4435	16.2214	17.8479	21.7734	-32.949	2.4698	34.5009	113.9246	-6.8093	11.6456
0.417	-3.3109	-0.2231	91.7785	-0.3715	0.8242	0.3514	40.8114	-18.5358	4.1245	21.1902	-17.8834	15.5184	0	49.0484	-6.3353	4.2298	33.2548	-13.8386	3.2063	0	2.0343	3.039	-0.5928	36.5548	-26.2052	13.9126	34.2055	126.4231	16.1753	17.8726	21.7889	-32.9481	2.4737	34.5015	113.9191	-6.8048	11.6447
0.433	-3.2974	-0.2249	91.7727	-0.3715	0.8242	0.3513	40.8005	-18.5288	4.1233	21.211	-17.8774	15.5268	0	49.0278	-6.3431	4.2306	33.2614	-13.8277	3.2038	0	2.0006	3.0371	-0.5735	36.5388	-26.2556	13.8997	34.2027	126.4058	16.1248	17.8967	21.802	-32.9471	2.4781	34.5056	113.9123	-6.8001	11.6435
0.45	-3.2865	-0.2266	91.767	-0.3714	0.8243	0.3512	40.7909	-18.5221	4.122	21.2303	-17.8709	15.5354	0	49.0097	-6.3511	4.2305	33.2681	-13.8168	3.2015	0	1.9718	3.0352	-0.5558	36.5218	-26.3029	13.8895	34.1938	126.3839	16.0779	17.9245	21.8103	-32.9504	2.4816	34.5078	113.9054	-6.7956	11.6428
0.467	-3.2789	-0.2288	91.7618	-0.3713	0.8244	0.351	40.7823	-18.5154	4.1206	21.2473	-17.864	15.545	0	48.9946	-6.3604	4.2282	33.2752	-13.806	3.2002	0	1.9513	3.0337	-0.541	36.5068	-26.3454	13.8837	34.1737	126.351	16.0377	17.9616	21.8106	-32.9611	2.4834	34.5055	113.8988	-6.7913	11.6433
0.483	-3.2739	-0.2311	91.7567	-0.3713	0.8245	0.3508	40.775	-18.5091	4.1192	21.2628	-17.8565	15.5549	0	48.982	-6.3698	4.225	33.2823	-13.7952	3.1993	0	1.9358	3.0323	-0.5278	36.4908	-26.3848	13.8806	34.1476	126.3135	16.0009	18.0024	21.806	-32.9762	2.4841	34.5012	113.8922	-6.7872	11.6443
0.5	-3.2688	-0.2327	91.7517	-0.3712	0.8245	0.3507	40.7687	-18.5036	4.118	21.2792	-17.848	15.564	0	48.9699	-6.377	4.2238	33.29	-13.7839	3.1975	0	1.9197	3.0307	-0.5154	36.4797	-26.4217	13.8806	34.1256	126.2828	15.9662	18.0345	21.8037	-32.9908	2.4849	34.4974	113.8855	-6.7842	11.6451
